<?xml version="1.0" encoding="UTF-8" standalone="no"?>
<svg height="124" viewBox="0 0 387 124" width="387" xmlns="http://www.w3.org/2000/svg"><g fill="#222"><g transform="translate(157.586512 46.820511)"><path d="m51.429337.0009765c-8.9830241 0-16.4064548 7.1196289-16.4064548 16.3027344 0 9.1801758 7.4234307 16.300293 16.4064548 16.300293s16.4064549-7.1201172 16.4064549-16.300293c0-9.1831055-7.4234308-16.3027344-16.4064549-16.3027344zm-.0297483 25.234375c-4.462739 0-8.5787393-3.2792969-8.5787393-8.9018555 0-5.6206055 4.1160003-8.8999023 8.5787393-8.8999023 4.4581061 0 8.576301 3.2792969 8.576301 8.8999023 0 5.6225587-4.1181949 8.9018555-8.576301 8.9018555z"/><path d="m214.06822.0009765c-7.735788 0-15.315519 4.7143555-15.315519 14.0537109v17.8637695h8.080332v-16.8657227c0-5.340332 3.617594-7.6191406 7.297122-7.6191406 3.681967 0 7.205195 2.2788086 7.205195 7.6191406v16.8657227h8.078138v-17.8637695c0-9.3393554-7.641666-14.0537109-15.345268-14.0537109z"/><path d="m92.2705503.0009765c-7.7357883 0-15.3155198 4.7143555-15.3155198 14.0537109v17.8637695h8.0781381v-16.8657227c0-5.340332 3.6197881-7.6191406 7.2993167-7.6191406 3.681967 0 7.2051949 2.2788086 7.2051949 7.6191406v16.8657227h8.0781378v-17.8637695c0-9.3393554-7.6416662-14.0537109-15.3452677-14.0537109z"/><path d="m133.279494.0009765c-7.735788 0-15.31552 4.7143555-15.31552 14.0537109v17.8637695h8.080333v-16.8657227c0-5.340332 3.617593-7.6191406 7.297122-7.6191406 3.681967 0 7.205439 2.2788086 7.205439 7.6191406v16.8657227h8.077894v-17.8637695c0-9.3393554-7.641666-14.0537109-15.345268-14.0537109z"/><path d="m173.950752 0c-9.081779 0-16.206751 7.0966797-16.206751 16.2866211 0 9.1894531 6.904298 16.3183594 16.080442 16.3183594 6.203749 0 10.949097-2.9663086 13.737395-6.9057617.039014-.0576172-5.664134-3.6796875-5.693882-3.6357422-1.64006 2.3017578-4.359595 3.7900391-7.761148 3.7900391-4.602946 0-7.609479-3.0336914-8.486812-6.8789062h23.795505s.217992-1.3632812.217992-2.6879883c0-9.2470705-6.695328-16.2866212-15.682741-16.2866212zm-8.202253 13.140625c1.049727-3.9990234 4.393977-6.2436523 8.170066-6.2436523 3.658802 0 7.087908 2.1616211 8.169821 6.2436523z"/><path d="m18.2437806 13.5234375-7.0030525-1.8554688c-1.47229912-.4023438-2.23722163-1.4560547-2.23722163-2.4448242 0-1.5473633 1.67663603-2.5112305 4.17793533-2.5112305 2.8733972 0 6.5736522 1.1430664 8.1447061 3.8798828l5.3332439-3.5351562c-2.3840127-4.7670898-7.8277155-7.0551758-13.0643992-7.0551758-6.24056829 0-12.21242622 3.1552734-12.21242622 9.1894531 0 4.7353516 3.02945415 7.4257812 8.47315707 8.9116211l6.83260915 1.878418c1.8534193.4946289 2.6368736 1.5322266 2.6368736 2.7944336 0 1.6098633-1.7761224 3.0610352-4.9952832 3.0610352-3.4425172 0-7.26493542-1.5454102-8.92328361-4.6962891l-5.40663939 3.5854492c2.6183418 5.3833008 8.3856189 7.8579102 13.9188107 7.8579102 7.062793 0 13.0070971-3.7739258 13.0070971-9.7783203 0-4.9809571-3.0318928-7.7661133-8.6821272-9.2817383z"/></g><path d="m60.4252238 0c-33.3719636 0-60.4252238 27.0867386-60.4252238 60.5s27.0532602 60.5 60.4252238 60.5c33.3719637 0 60.4252242-27.0867462 60.4252242-60.5s-27.0532681-60.5-60.4252242-60.5zm2.3865502 116.590012c-29.1481638 0-52.7774004-23.6587223-52.7774004-52.8427128 0-29.1843109 23.6292366-52.8430328 52.7774004-52.8430328 29.1482475 0 52.777484 23.6587219 52.777484 52.8430328 0 29.1839905-23.6292365 52.8427128-52.777484 52.8427128z" transform="translate(1 1)"/></g></svg>
